<svg width="18" height="18" viewBox="0 0 18 18" fill="none" xmlns="http://www.w3.org/2000/svg">
<path d="M17.5 10.5H15.32C15.15 11.2 14.88 11.85 14.51 12.43L16.05 13.97L13.95 16.07L12.41 14.53C11.83 14.89 11.18 15.16 10.5 15.32V17.5H7.5V15.32C6.82 15.16 6.17 14.89 5.59 14.53L4.05 16.07L1.93 13.95L3.47 12.41C3.11 11.83 2.84 11.18 2.68 10.5H0.5V7.53H2.67C2.83 6.83 3.11 6.18 3.47 5.59L1.93 4.05L4.03 1.95L5.57 3.49C6.15 3.12 6.81 2.85 7.5 2.68V0.5H10.5V2.68C11.18 2.84 11.83 3.11 12.41 3.47L13.95 1.93L16.07 4.05L14.53 5.59C14.89 6.18 15.17 6.83 15.33 7.53H17.5V10.5ZM9 12C10.66 12 12 10.66 12 9C12 7.34 10.66 6 9 6C7.34 6 6 7.34 6 9C6 10.66 7.34 12 9 12Z" fill="#2F80ED"/>
</svg>
